<svg xmlns="http://www.w3.org/2000/svg" viewBox="0 0 32 32">
  <rect width="32" height="32" rx="4" fill="#0a0810"/>
  <!-- Cat head silhouette -->
  <path d="M16 6 L10 4 L8 10 L6 12 L6 18 L8 22 L12 26 L20 26 L24 22 L26 18 L26 12 L24 10 L22 4 L16 6 Z" fill="#e8e4dc"/>
  <!-- Left ear -->
  <path d="M10 4 L8 10 L12 8 Z" fill="#e8e4dc"/>
  <!-- Right ear -->
  <path d="M22 4 L24 10 L20 8 Z" fill="#e8e4dc"/>
  <!-- Left eye -->
  <circle cx="12" cy="14" r="2" fill="#0a0810"/>
  <!-- Right eye -->
  <circle cx="20" cy="14" r="2" fill="#0a0810"/>
  <!-- Nose -->
  <path d="M16 17 L14 19 L18 19 Z" fill="#d4a574"/>
  <!-- Whiskers left -->
  <line x1="6" y1="16" x2="11" y2="17" stroke="#0a0810" stroke-width="0.5"/>
  <line x1="6" y1="18" x2="11" y2="18" stroke="#0a0810" stroke-width="0.5"/>
  <!-- Whiskers right -->
  <line x1="21" y1="17" x2="26" y2="16" stroke="#0a0810" stroke-width="0.5"/>
  <line x1="21" y1="18" x2="26" y2="18" stroke="#0a0810" stroke-width="0.5"/>
</svg>
